# xmcd CD database file
#
# Track frame offsets:
#	150
#	16452
#	30692
#	47430
#	61547
#	80682
#	93855
#	112032
#	132832
#	148642
#
# Disc length: 2174 seconds
#
# Revision: 6
# Processed by: cddbd v1.5.2PL0 Copyright (c) Steve Scherf et al.
# Submitted via: CDex 1.79
#
DISCID=7a087c0a,7d087c0a
DTITLE=Vince Gill - When I Call Your Name
DYEAR=1989
DGENRE=Country
TTITLE0=Never Alone
TTITLE1=Sight For Sore Eyes
TTITLE2=Oh Girl (You Know Where To Find Me)
TTITLE3=Oklahoma Swing (featuring Reba McEntire)
TTITLE4=When I Call Your Name
TTITLE5=Ridin' The Rodeo
TTITLE6=Never Knew Lonely
TTITLE7=We Won't Dance
TTITLE8=We Could Have Been
TTITLE9=Rita Ballou
EXTD=YEAR: 1989
EXTT0=
EXTT1=
EXTT2=
EXTT3=
EXTT4=
EXTT5=
EXTT6=
EXTT7=
EXTT8=
EXTT9=
PLAYORDER=
